SplineFontDB: 3.0
FontName: Career
FullName: Career
FamilyName: Career
Weight: Medium
Copyright: Created by Antoine Gelgon with FontForge 2.0 (http://fontforge.sf.net)
UComments: "2014-5-9: Created." 
Version: 001.000
ItalicAngle: 0
UnderlinePosition: -100
UnderlineWidth: 50
Ascent: 800
Descent: 200
UFOAscent: 800
UFODescent: -200
LayerCount: 2
Layer: 0 0 "Arri+AOgA-re"  1
Layer: 1 0 "Avant"  0
OS2Version: 0
OS2_WeightWidthSlopeOnly: 0
OS2_UseTypoMetrics: 0
CreationTime: 1407112779
ModificationTime: 1407117372
OS2TypoAscent: 0
OS2TypoAOffset: 1
OS2TypoDescent: 0
OS2TypoDOffset: 1
OS2TypoLinegap: 0
OS2WinAscent: 0
OS2WinAOffset: 1
OS2WinDescent: 0
OS2WinDOffset: 1
HheadAscent: 0
HheadAOffset: 1
HheadDescent: 0
HheadDOffset: 1
OS2Vendor: 'PfEd'
DEI: 91125
LangName: 1033 "" "" "" "" "" "Version 001.000" 
Encoding: UnicodeBmp
UnicodeInterp: none
NameList: Adobe Glyph List
DisplaySize: -24
AntiAlias: 1
FitToEm: 1
WinInfo: 48 48 16
BeginChars: 65536 29

StartChar: a
Encoding: 97 97 0
Width: 500
VWidth: 0
GlyphClass: 2
Flags: W
LayerCount: 2
Fore
SplineSet
310 123 m 1
 310 48 205 -5 128 -5 c 0
 68 -5 12 37 12 96 c 1
 10 180 103 218 162 245 c 0
 208 266 272 289 321 309 c 1
 323 297 324 291 325 290 c 1
 231 258 146 241 150 130 c 0
 151 86 159 40 213 40 c 0
 248 40 302 98 302 134 c 1
 310 123 l 1
159 363 m 1
 159 302 132 252 75 253 c 0
 40 253 9 277 10 311 c 0
 10 334 23 361 49 393 c 0
 94 446 187 510 286 510 c 0
 357 510 401 482 419 430 c 0
 423 416 426 402 426 387 c 2
 426 66 l 2
 426 50 435 41 449 37 c 0
 457 35 469 39 483 49 c 1
 490 44 l 1
 474 23 430 -6 390 -6 c 0
 331 -6 292 21 292 74 c 2
 292 430 l 2
 292 463 287 488 253 489 c 1
 198 489 158 465 158 410 c 1
 159 363 l 1
EndSplineSet
EndChar

StartChar: o
Encoding: 111 111 1
Width: 556
VWidth: 0
GlyphClass: 2
Flags: W
PickledData: "(dp1
S'com.fontlab.hintData'
p2
(dp3
S'vhints'
p4
((dp5
S'position'
p6
I10
sS'width'
p7
I162
s(dp8
g6
I384
sg7
I162
stp9
sS'hhints'
p10
((dp11
g6
I-12
sg7
I20
s(dp12
g6
I491
sg7
I17
stp13
ss."
HStem: -12 19<232.413 322.125> 491 17<233.275 321.258>
VStem: 10 162<141.971 354.783> 383 163<143.076 353.686>
LayerCount: 2
Fore
SplineSet
172 250 m 0
 172 181 175 130 183 96 c 0
 191 62 202 39 216 26 c 1
 231 14 251 7 277 7 c 0
 304 7 324 14 339 26 c 1
 353 39 364 62 372 96 c 0
 379 130 383 181 383 250 c 0
 383 317 379 367 372 402 c 1
 364 436 353 459 339 472 c 1
 324 484 304 491 277 491 c 0
 251 491 231 484 216 472 c 1
 202 459 191 436 183 402 c 0
 175 367 172 317 172 250 c 0
10 249 m 0
 10 323 36 384 88 434 c 0
 140 483 203 508 277 508 c 0
 351 508 415 483 467 434 c 0
 519 384 545 323 546 249 c 1
 545 173 519 111 467 62 c 0
 415 12 351 -12 277 -12 c 0
 203 -12 140 12 88 62 c 0
 36 111 10 173 10 249 c 0
EndSplineSet
EndChar

StartChar: r
Encoding: 114 114 2
Width: 453
VWidth: 0
GlyphClass: 2
Flags: W
PickledData: "(dp1
S'com.fontlab.hintData'
p2
(dp3
S'vhints'
p4
((dp5
S'position'
p6
I97
sS'width'
p7
I134
stp8
sS'hhints'
p9
((dp10
g6
I0
sg7
I8
s(dp11
g6
I480
sg7
I20
stp12
ss."
HStem: 0 8<36 291> 480 20<224 224>
VStem: 97 134<320 335>
LayerCount: 2
Fore
SplineSet
231 59 m 2
 231 46 235 35 246 27 c 0
 255 20 265 15 276 12 c 2
 291 8 l 1
 291 0 l 1
 209 10 125 10 37 0 c 1
 37 2 37 5 36 8 c 1
 51 12 l 2
 62 14 72 19 81 27 c 1
 92 35 97 44 96 54 c 1
 97 320 l 2
 97 350 89 375 73 394 c 0
 57 413 36 426 10 433 c 1
 10 439 l 1
 64 447 106 455 137 463 c 0
 168 471 197 483 224 500 c 1
 231 499 l 1
 231 59 l 2
288 412 m 0
 259 412 226 311 212 291 c 1
 218 348 l 1
 254 400 282 508 370 508 c 0
 417 508 443 472 443 425 c 0
 443 381 415 344 377 344 c 0
 342 344 316 363 299 402 c 0
 297 409 293 412 288 412 c 0
EndSplineSet
EndChar

StartChar: d
Encoding: 100 100 3
Width: 574
VWidth: 0
GlyphClass: 2
Flags: W
PickledData: "(dp1
S'com.fontlab.hintData'
p2
(dp3
S'vhints'
p4
((dp5
S'position'
p6
I10
sS'width'
p7
I145
s(dp8
g6
I366
sg7
I29
s(dp9
g6
I367
sg7
I137
stp10
sS'hhints'
p11
((dp12
g6
I-8
sg7
I51
s(dp13
g6
I36
sg7
I9
s(dp14
g6
I483
sg7
I24
stp15
ss."
HStem: -8 51 36 9<562 562> 483 24<227 304 186.5 320>
VStem: 10 145 366 29 367 137
LayerCount: 2
Fore
SplineSet
436 108 m 0
205 -8 m 0,1,2
 78 -8 10 101 10 232 c 0,3,4
 10 383 111 507 262 507 c 0,5,6
 346 507 397 448 395 361 c 1,7,-1
 394 242 l 1,8,9
 394 73 358 -8 205 -8 c 0,1,2
366 248 m 0,10,11
 366 361 377 483 263 483 c 0,12,13
 191 483 154 413 154 273 c 0,14,15
 154 174 193 44 286 43 c 1,16,17
 376 41 366 159 366 248 c 0,10,11
280 739 m 1,18,19
 323 746 353 751 369 754 c 0,20,21
 385 757 405 762 428 770 c 0,22,23
 452 778 474 788 494 801 c 1,24,-1
 501 800 l 1,25,-1
 503 108 l 2,26,27
 503 93 508 81 518 70 c 0,28,29
 528 60 538 52 548 48 c 0,30,31
 558 44 563 43 563 45 c 1,32,33
 564 43 564 42 564 41 c 0,34,35
 564 40 564 39 563 38 c 0,36,37
 563 37 562 36 562 36 c 1,38,39
 541 38 508 34 463 24 c 0,40,41
 419 14 388 4 372 -4 c 1,42,-1
 365 0 l 1,43,-1
 367 620 l 2,44,45
 367 651 360 676 344 695 c 0,46,47
 329 714 307 727 281 733 c 1,48,-1
 280 739 l 1,18,19
EndSplineSet
EndChar

StartChar: s
Encoding: 115 115 4
Width: 425
VWidth: 0
GlyphClass: 2
Flags: W
PickledData: "(dp1
S'com.fontlab.hintData'
p2
(dp3
S'vhints'
p4
((dp5
S'position'
p6
I47
sS'width'
p7
I8
stp8
sS'hhints'
p9
((dp10
g6
I-12
sg7
I18
s(dp11
g6
I490
sg7
I21
stp12
ss."
HStem: -12 18<200.733 265.358> 490 21<156.288 215.365>
VStem: 46 8<203.289 216>
LayerCount: 2
Fore
SplineSet
217 173 m 1
 179 199 87 219 49 278 c 0
 -28 397 104.995 511 213 511 c 1
 306 511 339 467 339 467 c 1
 354 324 l 1
 346 324 l 1
 282 443 220 491 178 490 c 0
 120 488 92 410 184 362 c 1
 276 323 l 1
 276 323 396 272 396 151 c 0
 396 65 311 -12 213 -12 c 0
 123 -12 43 36 43 36 c 1
 46 216 l 1
 54 216 l 1
 74 127 166 6 234 6 c 0
 303 6 330 106 217 173 c 1
EndSplineSet
Validated: 33
EndChar

StartChar: e
Encoding: 101 101 5
Width: 497
VWidth: 0
GlyphClass: 2
Flags: W
PickledData: "(dp1
S'com.fontlab.hintData'
p2
(dp3
S'vhints'
p4
((dp5
S'position'
p6
I10
sS'width'
p7
I343
stp8
sS'hhints'
p9
((dp10
g6
I-11
sg7
I100
s(dp11
g6
I288
sg7
I18
s(dp12
g6
I491
sg7
I17
stp13
ss."
HStem: -11 100<224 354.5 224 354.5> 288 18<127 484 119 487 127 127 353 484 119 487 353 353> 491 17<196.5 310>
VStem: 10 343<288 322.5>
LayerCount: 2
Fore
SplineSet
10 249 m 0
 10 396 123 508 270 508 c 0
 402 508 487 384 487 288 c 1
 353 288 l 1
 353 384 350 491 270 491 c 0
 88 491 112 89 336 89 c 0
 373 89 432 93 476 163 c 1
 486 162 l 1
 486 162 440 -11 269 -11 c 0
 121 -11 10 100 10 249 c 0
487 288 m 1
 127 288 l 1
 119 306 l 1
 484 306 l 1
 487 288 l 1
EndSplineSet
EndChar

StartChar: n
Encoding: 110 110 7
Width: 611
VWidth: 0
GlyphClass: 2
Flags: W
PickledData: "(dp1
S'com.fontlab.hintData'
p2
(dp3
S'vhints'
p4
((dp5
S'position'
p6
I97
sS'width'
p7
I134
s(dp8
g6
I213
sg7
I18
s(dp9
g6
I407
sg7
I134
stp10
sS'hhints'
p11
((dp12
g6
I0
sg7
I8
s(dp13
g6
I433
sg7
I6
s(dp14
g6
I480
sg7
I20
stp15
ss."
HStem: 0 8<36 291> 433 6<10 10> 480 20<224 224>
VStem: 97 134<320 351.5> 213 18 407 134
LayerCount: 2
Fore
SplineSet
540 358 m 2
 541 59 l 1
 540 46 545 35 556 27 c 0
 565 20 575 15 586 12 c 2
 601 8 l 1
 600 5 600 2 600 0 c 1
 519 10 434 10 346 0 c 1
 346 8 l 1
 361 12 l 2
 371 14 381 19 391 27 c 0
 401 35 406 44 406 54 c 2
 406 309 l 2
 406 568 212 367 212 367 c 1
 212 403 l 1
 454 590 540 485 540 358 c 2
10 439 m 1
 107 454 159 460 224 500 c 1
 231 499 l 1
 231 59 l 1
 230 33 255 17 276 12 c 2
 291 8 l 1
 291 0 l 1
 209 10 125 10 37 0 c 1
 37 2 37 5 36 8 c 1
 51 12 l 2
 69 16 97 33 96 54 c 1
 97 320 l 2
 97 383 61 420 10 433 c 1
 10 439 l 1
EndSplineSet
EndChar

StartChar: f
Encoding: 102 102 8
Width: 354
VWidth: 0
GlyphClass: 2
Flags: W
PickledData: "(dp1
S'com.fontlab.hintData'
p2
(dp3
S'vhints'
p4
((dp5
S'position'
p6
I70
sS'width'
p7
I133
s(dp8
g6
I223
sg7
I121
stp9
sS'hhints'
p10
((dp11
g6
I0
sg7
I8
s(dp12
g6
I434
sg7
I7
s(dp13
g6
I637
sg7
I170
stp14
ss."
HStem: 0 8<10 264 10 10> 434 7<70 203 70 289> 637 170<270.5 277 184 302.5>
VStem: 70 133<59 441 59 441 59 441> 223 121<701 708.5>
LayerCount: 2
Fore
SplineSet
289 434 m 1
 14 434 l 1
 14 443 l 1
 95 555 120 807 248 807 c 0
 306 807 344 744 344 701 c 1
 343 662 318 637 287 637 c 0
 254 637 223 650 223 696 c 0
 223 721 230 720 229 744 c 1
 229 806 170 771 170 720 c 0
 170 628 206 542 206 480 c 1
 302 480 l 1
 289 434 l 1
70 441 m 1
 203 441 l 1
 203 59 l 1
 203 59 208 35 219 27 c 0
 228 20 238 15 249 12 c 2
 264 8 l 1
 264 0 l 1
 182 10 98 10 10 0 c 1
 10 8 l 1
 25 12 l 2
 35 14 45 19 55 27 c 0
 65 35 70 44 70 54 c 2
 70 441 l 1
EndSplineSet
EndChar

StartChar: c
Encoding: 99 99 9
Width: 496
VWidth: 0
GlyphClass: 2
Flags: W
PickledData: "(dp1
S'com.fontlab.hintData'
p2
(dp3
S'vhints'
p4
((dp5
S'position'
p6
I329
sS'width'
p7
I132
stp8
sS'hhints'
p9
((dp10
g6
I-11
sg7
I100
s(dp11
g6
I491
sg7
I17
stp12
ss."
HStem: -11 100<224 354.5 224 354.5> 491 17<198.5 270>
VStem: 329 132<351 368 368 368>
LayerCount: 2
Fore
SplineSet
10 249 m 1
 11 397 125 508 272 508 c 0
 394 508 461 407 461 330 c 0
 461 268 423 254 393 254 c 0
 349 254 313 300 329 368 c 1
 336 408 329 334 329 368 c 1
 350 465 304 492 270 491 c 1
 88 491 112 89 336 89 c 0
 373 89 432 93 476 163 c 1
 486 162 l 1
 486 162 440 -11 269 -11 c 0
 121 -11 10 100 10 249 c 1
EndSplineSet
EndChar

StartChar: p
Encoding: 112 112 10
Width: 580
VWidth: 0
GlyphClass: 2
Flags: W
PickledData: "(dp1
S'com.fontlab.hintData'
p2
(dp3
S'vhints'
p4
((dp5
S'position'
p6
I97
sS'width'
p7
I134
s(dp8
g6
I202
sg7
I29
s(dp9
g6
I418
sg7
I152
stp10
sS'hhints'
p11
((dp12
g6
I-112
sg7
I8
s(dp13
g6
I-11
sg7
I19
s(dp14
g6
I434
sg7
I6
s(dp15
g6
I437
sg7
I63
stp16
ss."
HStem: -112 8 -11 19<279 357.5 266 394> 434 6 437 63<224 308>
VStem: 97 134<320 351.5> 202 29<130 130> 418 152<193.5 315.5>
LayerCount: 2
Fore
SplineSet
10 439 m 1
 107 454 159 461 224 500 c 1
 231 499 l 1
 231 -52 l 1
 230 -78 255 -93 276 -99 c 2
 291 -103 l 1
 291 -111 l 1
 209 -101 125 -101 37 -111 c 1
 37 -109 37 -106 36 -103 c 1
 51 -99 l 2
 69 -95 97 -78 96 -57 c 1
 97 320 l 2
 97 383 61 420 10 433 c 1
 10 439 l 1
386 500 m 0
 514 500 570 397 570 267 c 0
 570 120 467 -11 321 -11 c 0
 237 -11 200 42 202 130 c 1
 203 249 l 1
 201 415 266 500 386 500 c 0
231 243 m 0
 231 130 213 8 319 8 c 0
 396 8 418 159 418 224 c 0
 418 407 324 437 292 437 c 0
 208 437 231 251 231 243 c 0
EndSplineSet
EndChar

StartChar: b
Encoding: 98 98 11
Width: 598
VWidth: 0
GlyphClass: 2
Flags: W
PickledData: "(dp1
S'com.fontlab.hintData'
p2
(dp3
S'vhints'
p4
((dp5
S'position'
p6
I95
sS'width'
p7
I7
s(dp8
g6
I203
sg7
I30
s(dp9
g6
I444
sg7
I145
stp10
sS'hhints'
p11
((dp12
g6
I-4
sg7
I24
s(dp13
g6
I460
sg7
I51
stp14
ss."
HStem: -4 24 460 51
VStem: 95 7<-4 0> 203 30 444 145
LayerCount: 2
Fore
SplineSet
232 108 m 1
 227 59 262 20 336 -4 c 1
 242 -4 201 43 201 43 c 1
 146 100 102 -4 102 -4 c 1
 95 0 l 1
 97 620 l 2
 97 651 89 676 73 695 c 0
 58 714 37 727 10 733 c 1
 10 739 l 1
 52 746 82 751 98 754 c 0
 114 757 134 762 157 770 c 0
 181 778 203 788 224 801 c 1
 231 800 l 1
 232 108 l 1
166 108 m 0
392 511 m 0
 520 511 588 401 588 271 c 0
 588 119 487 -3 335 -3 c 0
 252 -3 201 54 202 142 c 2
 203 261 l 1
 203 429 240 511 392 511 c 0
232 255 m 0
 232 141 221 19 334 19 c 0
 407 19 443 89 443 230 c 0
 443 328 405 458 311 460 c 0
 222 461 232 343 232 255 c 0
EndSplineSet
EndChar

StartChar: g
Encoding: 103 103 12
Width: 502
VWidth: 0
GlyphClass: 2
Flags: W
PickledData: "(dp1
S'com.fontlab.hintData'
p2
(dp3
S'vhints'
p4
((dp5
S'position'
p6
I10
sS'width'
p7
I60
s(dp8
g6
I29
sg7
I152
s(dp9
g6
I300
sg7
I152
stp10
sS'hhints'
p11
((dp12
g6
I-112
sg7
I17
s(dp13
g6
I0
sg7
I142
s(dp14
g6
I189
sg7
I14
s(dp15
g6
I500
sg7
I7
s(dp16
g6
I523
sg7
I139
stp17
ss."
HStem: -114 18<132.599 348.013> 0 142<138.417 372.19> 188 14<191.392 261.642> 500 6<231.476 250> 523 139<311.681 423.64>
VStem: 10 60<-71.0946 -1.45973> 29 152<271.953 413.609> 300 152<270.972 413.792>
LayerCount: 2
Fore
SplineSet
163 207 m 1xfd
 42 155 24 120 25 86 c 1
 25 14 113 0 237 0 c 0
 377 0 397 -32 396 -53 c 1
 396 -77 363 -96 237 -96 c 0
 179 -96 70 -91 70 -39 c 0
 70 0 105 3 122 26 c 1
 94 35 l 1
 64 15 10 0 10 -40 c 0
 11 -111 175 -114 237 -114 c 0
 452 -114 492 -51 492 25 c 0
 492 114 423 142 324 142 c 2
 143 142 l 2
 92 142 191 200 191 200 c 1
 163 207 l 1xfd
231 500 m 1
 250 500 l 1
 250 500 261 574 305 549 c 1
 330 533 339 523 380 523 c 0
 415 523 442 557 442 595 c 0
 442 642 406 662 375 662 c 0
 261 662 231 500 231 500 c 1
240 202 m 0
 196 202 181 266 181 342 c 5xfb
 180 413 188 490 240 490 c 4
 292 490 300 413 300 342 c 0
 300 266 284 202 240 202 c 0
240 506 m 0
 150 506 29 452 29 341 c 0
 29 234 150 188 240 188 c 0
 329 188 452 234 452 341 c 0
 452 452 329 506 240 506 c 0
EndSplineSet
EndChar

StartChar: t
Encoding: 116 116 13
Width: 357
VWidth: 0
GlyphClass: 2
Flags: W
PickledData: "(dp1
S'com.fontlab.hintData'
p2
(dp3
S'vhints'
p4
((dp5
S'position'
p6
I66
sS'width'
p7
I133
stp8
sS'hhints'
p9
((dp10
g6
I-4
sg7
I40
s(dp11
g6
I462
sg7
I7
stp12
ss."
HStem: -4 40<249 255> 462 7<65 198 65 300>
VStem: 66 133
LayerCount: 2
Fore
SplineSet
65 145 m 2
 65 469 l 1
 198 469 l 1
 199 150 l 1
 202 63 230 36 268 36 c 0
 310 36 340 67 339 68 c 2
 347 62 l 1
 347 62 304 -4 206 -4 c 0
 72 -4 65 112 65 145 c 2
191 668 m 1
 201 668 l 1
 201 668 202 554 202 508 c 1
 313 508 l 1
 300 462 l 1
 10 462 l 1
 10 471 l 1
 10 471 111 544 191 668 c 1
EndSplineSet
EndChar

StartChar: m
Encoding: 109 109 14
Width: 922
VWidth: 0
GlyphClass: 2
Flags: W
PickledData: "(dp1
S'com.fontlab.hintData'
p2
(dp3
S'vhints'
p4
((dp5
S'position'
p6
I97
sS'width'
p7
I134
s(dp8
g6
I213
sg7
I18
s(dp9
g6
I407
sg7
I134
s(dp10
g6
I524
sg7
I17
s(dp11
g6
I718
sg7
I134
stp12
sS'hhints'
p13
((dp14
g6
I0
sg7
I8
s(dp15
g6
I433
sg7
I6
s(dp16
g6
I480
sg7
I20
stp17
ss."
HStem: 0 8<36 291> 433 6<10 10> 480 20<224 224>
VStem: 97 134<320 351.5> 213 18 407 134 524 17 718 134
LayerCount: 2
Fore
SplineSet
851 358 m 2xe1
 852 59 l 1
 851 46 856 35 867 27 c 0
 876 20 886 15 897 12 c 2
 912 8 l 1
 911 5 911 2 911 0 c 1
 830 10 745 10 657 0 c 1
 657 8 l 1
 672 12 l 2
 682 14 692 19 702 27 c 0
 712 35 717 44 717 54 c 2
 717 309 l 2
 717 568 523 367 523 367 c 1
 523 403 l 1
 765 590 851 485 851 358 c 2xe1
540 358 m 2
 541 59 l 1xe3
 540 46 545 35 556 27 c 0
 565 20 575 15 586 12 c 2
 601 8 l 1
 600 5 600 2 600 0 c 1
 519 10 434 10 346 0 c 1
 346 8 l 1
 361 12 l 2
 371 14 381 19 391 27 c 0
 401 35 406 44 406 54 c 2
 406 309 l 2
 406 568 212 367 212 367 c 1
 212 403 l 1
 454 590 540 485 540 358 c 2
10 439 m 1
 107 454 159 460 224 500 c 1
 231 499 l 1
 231 59 l 1xe9
 230 33 255 17 276 12 c 2
 291 8 l 1
 291 0 l 1
 209 10 125 10 37 0 c 1
 37 2 37 5 36 8 c 1
 51 12 l 2
 69 16 97 33 96 54 c 1
 97 320 l 2xf1
 97 383 61 420 10 433 c 1
 10 439 l 1
EndSplineSet
EndChar

StartChar: i
Encoding: 105 105 15
Width: 301
VWidth: 0
GlyphClass: 2
Flags: W
PickledData: "(dp1
S'com.fontlab.hintData'
p2
(dp3
S'vhints'
p4
((dp5
S'position'
p6
I90
sS'width'
p7
I167
s(dp8
g6
I97
sg7
I134
stp9
sS'hhints'
p10
((dp11
g6
I0
sg7
I8
s(dp12
g6
I433
sg7
I6
s(dp13
g6
I480
sg7
I20
s(dp14
g6
I636
sg7
I176
stp15
ss."
HStem: 0 8<36 291> 433 6<10 10> 480 20<224 224> 636 176
VStem: 90 167<700 747.5> 97 134<320 351.5>
LayerCount: 2
Fore
SplineSet
-560 1261 m 0
90 724 m 0,1,2
 90 771 125 811 173 811 c 0,3,4
 221 811 257 771 257 724 c 0,5,6
 257 676 221 636 173 636 c 0,7,8
 125 636 90 676 90 724 c 0,1,2
10 439 m 1,9,10
 107 454 159 460 224 500 c 1,11,-1
 231 499 l 1,12,-1
 231 59 l 1,13,14
 230 33 255 17 276 12 c 2,15,-1
 291 8 l 1,16,-1
 291 0 l 1,17,18
 209 10 125 10 37 0 c 1,19,20
 37 2 37 5 36 8 c 1,21,-1
 51 12 l 2,22,23
 69 16 97 33 96 54 c 1,24,-1
 97 320 l 2,25,26
 97 383 61 420 10 433 c 1,27,-1
 10 439 l 1,9,10
EndSplineSet
EndChar

StartChar: h
Encoding: 104 104 16
Width: 578
VWidth: 0
GlyphClass: 2
Flags: W
PickledData: "(dp1
S'com.fontlab.hintData'
p2
(dp3
S'vhints'
p4
((dp5
S'position'
p6
I65
sS'width'
p7
I134
s(dp8
g6
I180
sg7
I19
s(dp9
g6
I374
sg7
I134
stp10
sS'hhints'
p11
((dp12
g6
I0
sg7
I8
s(dp13
g6
I780
sg7
I20
stp14
ss."
HStem: 0 8<4 258 4 4> 780 20
VStem: 65 134 180 19 374 134<54 59 59 309 309 309>
LayerCount: 2
Fore
SplineSet
508 358 m 2
 508 59 l 2
 508 46 512 35 523 27 c 0
 533 20 543 15 553 12 c 2
 568 8 l 1
 568 0 l 1
 487 10 402 10 314 0 c 1
 314 8 l 1
 329 12 l 2
 339 14 349 19 359 27 c 0
 369 35 374 44 374 54 c 2
 374 309 l 1
 373 568 180 367 180 367 c 1
 180 403 l 1
 422 590 508 485 508 358 c 2
199 59 m 2
 199 46 203 35 214 27 c 0
 223 20 233 15 244 12 c 2
 259 8 l 1
 258 5 258 2 258 0 c 1
 177 10 92 10 4 0 c 1
 4 8 l 1
 19 12 l 2
 29 14 39 19 49 27 c 0
 59 35 64 44 64 54 c 2
 64 620 l 2
 64 651 57 676 41 695 c 0
 25 714 4 726 -22 733 c 1
 -22 739 l 1
 31 747 74 756 105 764 c 0
 136 771 164 783 191 799 c 1
 198 799 l 1
 199 59 l 2
EndSplineSet
EndChar

StartChar: l
Encoding: 108 108 17
Width: 301
VWidth: 0
GlyphClass: 2
Flags: HMW
PickledData: "(dp1
S'com.fontlab.hintData'
p2
(dp3
S'vhints'
p4
((dp5
S'position'
p6
I97
sS'width'
p7
I134
stp8
sS'hhints'
p9
((dp10
g6
I0
sg7
I8
s(dp11
g6
I780
sg7
I20
stp12
ss."
VStem: 96 135<46 159 620 693.201>
LayerCount: 2
Fore
SplineSet
231 59 m 2
 231 46 235 35 246 27 c 0
 255 20 265 15 276 12 c 2
 291 8 l 1
 291 0 l 1
 209 10 125 10 37 0 c 1
 37 2 37 5 36 8 c 1
 51 12 l 2
 62 14 72 19 81 27 c 1
 92 35 96 44 96 54 c 2
 97 620 l 2
 97 651 89 676 73 695 c 0
 57 714 36 726 10 733 c 1
 10 739 l 1
 64 747 106 756 137 764 c 0
 168 771 197 783 224 799 c 1
 231 799 l 1
 231 59 l 2
EndSplineSet
EndChar

StartChar: q
Encoding: 113 113 18
Width: 572
VWidth: 0
GlyphClass: 2
Flags: W
PickledData: "(dp1
S'com.fontlab.hintData'
p2
(dp3
S'vhints'
p4
((dp5
S'position'
p6
I10
sS'width'
p7
I145
s(dp8
g6
I367
sg7
I28
s(dp9
g6
I497
sg7
I7
stp10
sS'hhints'
p11
((dp12
g6
I-112
sg7
I8
s(dp13
g6
I-8
sg7
I51
s(dp14
g6
I483
sg7
I24
stp15
ss."
HStem: -112 8 -8 51 483 24<227 304 304 309 186.5 320>
VStem: 10 145 367 28 497 7
LayerCount: 2
Fore
SplineSet
366 -55 m 1
 366 395 l 1
 370 443 336 483 262 507 c 1
 356 507 397 460 397 460 c 1
 452 402 496 507 496 507 c 1
 503 503 l 1
 503 -52 l 2
 503 -78 526 -93 547 -99 c 2
 562 -103 l 1
 562 -106 561 -109 561 -111 c 1
 480 -101 395 -101 307 -111 c 1
 307 -103 l 1
 322 -99 l 2
 339 -95 367 -75 366 -55 c 1
432 395 m 0
205 -8 m 0
 78 -8 10 101 10 232 c 0
 10 383 111 507 262 507 c 0
 346 507 397 448 395 361 c 1
 394 242 l 1
 394 73 358 -8 205 -8 c 0
366 248 m 0
 366 361 377 483 263 483 c 0
 191 483 154 413 154 273 c 0
 154 174 193 44 286 43 c 1
 376 41 366 159 366 248 c 0
EndSplineSet
EndChar

StartChar: j
Encoding: 106 106 19
Width: 307
VWidth: 0
GlyphClass: 2
Flags: W
PickledData: "(dp1
S'com.fontlab.hintData'
p2
(dp3
S'vhints'
p4
((dp5
S'position'
p6
I10
sS'width'
p7
I121
s(dp8
g6
I131
sg7
I167
s(dp9
g6
I138
sg7
I134
stp10
sS'hhints'
p11
((dp12
g6
I-116
sg7
I170
s(dp13
g6
I433
sg7
I6
s(dp14
g6
I636
sg7
I176
stp15
ss."
HStem: -116 170<77 83.5 67 170> 433 6<50 50> 636 176
VStem: 10 121<-17.5 9> 131 167 138 134
LayerCount: 2
Fore
SplineSet
271 120 m 2
 271 499 l 1
 264 500 l 1
 200 460 148 454 50 439 c 1
 50 433 l 1
 102 420 137 383 137 320 c 2
 138 134 l 2
 138 78 184 37 184 -29 c 0
 184 -80 125 -109 125 -53 c 1
 124 -29 131 -30 131 -5 c 0
 131 41 100 54 67 54 c 1
 31 52 10 28 10 -10 c 0
 10 -53 48 -116 106 -116 c 0
 234 -116 271 52 271 120 c 2
131 724 m 0
 131 771 165 811 213 811 c 0
 261 811 297 771 297 724 c 0
 297 676 261 636 213 636 c 0
 165 636 131 676 131 724 c 0
EndSplineSet
EndChar

StartChar: u
Encoding: 117 117 20
Width: 587
VWidth: 0
GlyphClass: 2
Flags: W
PickledData: "(dp1
S'com.fontlab.hintData'
p2
(dp3
S'vhints'
p4
((dp5
S'position'
p6
I70
sS'width'
p7
I134
s(dp8
g6
I380
sg7
I134
stp9
sS'hhints'
p10
((dp11
g6
I-1
sg7
I21
s(dp12
g6
I39
sg7
I9
s(dp13
g6
I492
sg7
I8
stp14
ss."
HStem: -1 21<385 385> 39 9<575 575> 492 8
VStem: 70 134<77 141> 380 134
LayerCount: 2
Fore
SplineSet
378 3 m 1
 379 440 l 2
 380 467 355 481 334 487 c 2
 319 491 l 1
 319 499 l 1
 401 489 485 489 573 499 c 1
 573 497 573 494 574 491 c 1
 559 487 l 2
 541 483 514 467 514 445 c 2
 514 111 l 2
 514 97 521 84 531 73 c 0
 541 63 551 55 561 51 c 0
 571 47 576 46 576 48 c 1
 577 46 577 45 577 44 c 0
 577 43 577 42 576 41 c 0
 576 40 575 39 575 39 c 1
 554 41 521 37 476 27 c 0
 432 17 401 7 385 -1 c 1
 378 3 l 1
70 141 m 2
 69 440 l 1
 70 453 65 463 55 472 c 1
 45 479 35 484 25 487 c 2
 10 491 l 1
 10 499 l 1
 91 489 176 489 264 499 c 1
 264 491 l 1
 249 487 l 2
 239 485 229 479 219 472 c 0
 209 464 204 455 204 445 c 2
 204 190 l 2
 204 -68 398 132 398 132 c 1
 398 96 l 1
 156 -90 70 13 70 141 c 2
EndSplineSet
EndChar

StartChar: v
Encoding: 118 118 21
Width: 628
VWidth: 0
GlyphClass: 2
Flags: W
PickledData: "(dp1
S'com.fontlab.hintData'
p2
(dp3
S'hhints'
p4
((dp5
S'position'
p6
I492
sS'width'
p7
I8
stp8
ss."
HStem: 492 8<10 264 10 264>
LayerCount: 2
Fore
SplineSet
266 -3 m 1
 70 446 l 2
 61 467 42 483 25 487 c 1
 10 492 l 1
 10 500 l 1
 98 489 182 489 264 500 c 1
 264 492 l 1
 249 487 l 1
 228 482 227 468 237 442 c 2
 349 157 l 1
 266 -3 l 1
433 319 m 1
 266 -3 l 1
 259 13 l 1
 413 327 l 2
 486 478 363 492 363 492 c 1
 363 500 l 1
 451 489 536 489 617 500 c 1
 617 497 618 492 618 492 c 1
 518 491 433 319 433 319 c 1
EndSplineSet
EndChar

StartChar: w
Encoding: 119 119 22
Width: 982
VWidth: 0
GlyphClass: 2
Flags: W
PickledData: "(dp1
S'com.fontlab.hintData'
p2
(dp3
S'hhints'
p4
((dp5
S'position'
p6
I492
sS'width'
p7
I8
stp8
ss."
HStem: 492 8<10 264 10 264>
LayerCount: 2
Fore
SplineSet
619 -3 m 1
 429 446 l 2
 420 467 399 484 382 488 c 2
 363 492 l 1
 363 500 l 1
 451 489 536 489 617 500 c 1
 617 497 617 494 618 492 c 1
 603 487 l 1
 582 482 580 468 591 442 c 2
 702 157 l 1
 619 -3 l 1
787 319 m 1
 620 -3 l 1
 613 13 l 1
 767 327 l 2
 840 478 717 492 717 492 c 1
 717 500 l 1
 805 489 890 489 971 500 c 1
 971 497 972 492 972 492 c 1
 872 491 787 319 787 319 c 1
266 -3 m 1
 70 446 l 2
 61 467 42 483 25 487 c 1
 10 492 l 1
 10 500 l 1
 98 489 182 489 264 500 c 1
 264 492 l 1
 249 487 l 1
 228 482 227 468 237 442 c 2
 349 157 l 1
 266 -3 l 1
433 319 m 1
 266 -3 l 1
 259 13 l 1
 413 327 l 2
 486 478 363 492 363 492 c 1
 363 500 l 1
 451 489 536 489 617 500 c 1
 617 497 618 492 618 492 c 1
 518 491 433 319 433 319 c 1
EndSplineSet
EndChar

StartChar: x
Encoding: 120 120 23
Width: 588
VWidth: 0
GlyphClass: 2
Flags: W
PickledData: "(dp1
S'com.fontlab.hintData'
p2
(dp3
S'hhints'
p4
((dp5
S'position'
p6
I0
sS'width'
p7
I8
s(dp8
g6
I495
sg7
I8
stp9
ss."
HStem: 0 8<240.645 253 334 345.417 575.645 588> 491 13<237.019 249> 495 8<323 331.241 554.114 577>
LayerCount: 2
Fore
SplineSet
234 159 m 1xa0
 149 17 253 8 253 8 c 1
 253 0 l 1
 165 10 80 10 -1 0 c 1
 -0 2 -1 8 -1 8 c 1
 98 9 208 159 208 159 c 1
 352 343 l 1
 437 466 323 495 323 495 c 1
 323 503 l 1
 411 492 496 492 577 503 c 1
 577 500 578 495 578 495 c 1
 485 495 377 343 377 343 c 1
 234 159 l 1xa0
524 59 m 1
 524 59 551 18 573 12 c 2
 588 8 l 1
 588 0 l 1
 500 10 415 10 334 0 c 1
 334 8 l 1
 349 12 l 2
 369 17 376.266 37.4355 361 58 c 2
 70 450 l 2
 55 470 42 487 25 491 c 1
 10 496 l 1
 10 504 l 1
 98 493 182 493 264 504 c 1
 264 496 l 1
 249 491 l 1xc0
 228 486 219 471 237 446 c 2
 524 59 l 1
EndSplineSet
EndChar

StartChar: y
Encoding: 121 121 24
Width: 564
VWidth: 0
GlyphClass: 2
Flags: HW
PickledData: "(dp1
S'com.fontlab.hintData'
p2
(dp3
S'vhints'
p4
((dp5
S'position'
p6
I49
sS'width'
p7
I122
stp8
sS'hhints'
p9
((dp10
g6
I-138
sg7
I147
s(dp11
g6
I0
sg7
I21
s(dp12
g6
I492
sg7
I8
stp13
ss."
HStem: -138 147<73.6973 157.573> 0 21G<260.076 279.191> 492 8<363 379.163 594.871 617>
VStem: 49 122<-56.7042 -6.34148>
LayerCount: 2
Fore
SplineSet
249 -38 m 1xb0
 249 -38 200 -138 129 -138 c 0
 92 -138 49 -112 49 -55 c 0
 49 -8 86 9 114 9 c 0
 154 9 171 -30 171 -30 c 1
 198 -84 220 -50 240 -19 c 1
 413 327 l 1
 486 478 363 492 363 492 c 5
 363 500 l 5
 451 489 536 489 617 500 c 5
 617 497 618 492 618 492 c 5
 518 491 433 319 433 319 c 1
 249 -38 l 1xb0
269 0 m 1x70
 70 446 l 6
 58.1064 472.655 32 488 10 492 c 5
 10 500 l 5
 98 489 182 489 264 500 c 5
 264 492 l 5
 249 487 l 5
 228.667 478.667 227 468 237 442 c 6
 349 157 l 1
 269 0 l 1x70
EndSplineSet
EndChar

StartChar: T
Encoding: 84 84 25
Width: 810
VWidth: 0
GlyphClass: 2
Flags: W
PickledData: "(dp1
S'com.fontlab.hintData'
p2
(dp3
S'vhints'
p4
((dp5
S'position'
p6
I27
sS'width'
p7
I8
s(dp8
g6
I326
sg7
I174
s(dp9
g6
I793
sg7
I8
stp10
sS'hhints'
p11
((dp12
g6
I0
sg7
I8
s(dp13
g6
I779
sg7
I19
stp14
ss."
HStem: 0 8<233 233 233 592> 779 19<326 358 358 470>
VStem: 27 8<536 536> 326 174<53 798> 793 8<536 536>
LayerCount: 2
Fore
SplineSet
233 0 m 1
 233 8 l 1
 233 8 326 22 326 85 c 2
 326 798 l 1
 499 798 l 1
 500 85 l 2
 500 21 592 8 592 8 c 1
 592 0 l 1
 500 21 327 19 233 0 c 1
470 779 m 2
 358 779 l 2
 101 779 35 536 35 536 c 1
 27 536 l 1
 79 814 l 1
 79 814 119 800 415 800 c 0
 711 800 749 814 749 814 c 1
 801 536 l 1
 793 536 l 1
 793 536 727 779 470 779 c 2
EndSplineSet
EndChar

StartChar: L
Encoding: 76 76 26
Width: 741
VWidth: 0
GlyphClass: 2
Flags: W
PickledData: "(dp1
S'com.fontlab.hintData'
p2
(dp3
S'vhints'
p4
((dp5
S'position'
p6
I132
sS'width'
p7
I174
stp8
sS'hhints'
p9
((dp10
g6
I0
sg7
I8
s(dp11
g6
I0
sg7
I21
s(dp12
g6
I792
sg7
I8
stp13
ss."
HStem: 0 8<39 681> 0 21<398 544.5 398 681> 792 8<38 398 38 398>
VStem: 132 174<70.5 85>
LayerCount: 2
Fore
SplineSet
488 536 m 0
306 120 m 2,1,-1
 305 715 l 2,2,3
 305 778 398 792 398 792 c 1,4,-1
 398 800 l 1,5,6
 305 778 132 781 38 800 c 1,7,-1
 38 792 l 1,8,9
 38 792 131 778 131 715 c 2,10,-1
 132 85 l 2,11,12
 132 22 39 8 39 8 c 1,13,-1
 39 0 l 1,14,-1
 681 0 l 1,15,-1
 722 285 l 1,16,-1
 714 285 l 1,17,18
 714 285 673 21 416 21 c 0,19,20
 380 21 306 21 306 120 c 2,1,-1
EndSplineSet
EndChar

StartChar: H
Encoding: 72 72 27
Width: 879
VWidth: 0
GlyphClass: 2
Flags: W
PickledData: "(dp1
S'com.fontlab.hintData'
p2
(dp3
S'vhints'
p4
((dp5
S'position'
p6
I118
sS'width'
p7
I174
s(dp8
g6
I204
sg7
I88
s(dp9
g6
I596
sg7
I174
stp10
sS'hhints'
p11
((dp12
g6
I0
sg7
I8
s(dp13
g6
I403
sg7
I31
s(dp14
g6
I792
sg7
I8
stp15
ss."
HStem: 0 8<24 384 24 24> 403 31<204 710 204 710> 792 8<24 384 24 384>
VStem: 118 174 204 88 596 174<85 715>
LayerCount: 2
Fore
SplineSet
204 434 m 1
 710 434 l 1
 710 403 l 1
 204 403 l 1
 204 434 l 1
596 85 m 2
 596 715 l 2
 596 778 503 792 503 792 c 1
 503 800 l 1
 597 781 770 778 862 800 c 1
 862 792 l 1
 862 792 770 778 770 715 c 2
 770 85 l 2
 770 21 862 8 862 8 c 1
 862 0 l 1
 770 21 597 19 503 0 c 1
 503 8 l 1
 503 8 596 22 596 85 c 2
117 85 m 2
 117 715 l 2
 117 778 24 792 24 792 c 1
 24 800 l 1
 118 781 291 778 384 800 c 1
 384 792 l 1
 384 792 291 778 291 715 c 2
 291 85 l 2
 291 21 384 8 384 8 c 1
 384 0 l 1
 291 21 118 19 24 0 c 1
 24 8 l 1
 24 8 117 22 117 85 c 2
EndSplineSet
EndChar

StartChar: k
Encoding: 107 107 28
Width: 578
VWidth: 0
Flags: HW
LayerCount: 2
Back
Fore
SplineSet
534 358 m 2
 534 59 l 2
 534 46 538 35 549 27 c 0
 559 20 569 15 579 12 c 2
 594 8 l 1
 594 0 l 1
 513 10 428 10 340 0 c 1
 340 8 l 1
 355 12 l 2
 365 14 375 19 385 27 c 0
 395 35 400 44 400 54 c 2
 400 309 l 1
 399 568 206 367 206 367 c 1
 206 403 l 1
 448 590 534 485 534 358 c 2
225 59 m 2
 225 46 229 35 240 27 c 0
 249 20 259 15 270 12 c 2
 285 8 l 1
 284 5 284 2 284 0 c 1
 203 10 118 10 30 0 c 1
 30 8 l 1
 45 12 l 2
 55 14 65 19 75 27 c 0
 85 35 90 44 90 54 c 2
 90 620 l 2
 90 651 83 676 67 695 c 0
 51 714 30 726 4 733 c 1
 4 739 l 1
 57 747 100 756 131 764 c 0
 162 771 190 783 217 799 c 1
 224 799 l 1
 225 59 l 2
EndSplineSet
EndChar
